<?xml version="1.0" encoding="utf-8"?>
<!-- Generator: Adobe Illustrator 21.0.0, SVG Export Plug-In . SVG Version: 6.00 Build 0)  -->
<svg version="1.1" id="Layer_1" xmlns="http://www.w3.org/2000/svg" xmlns:xlink="http://www.w3.org/1999/xlink" x="0px" y="0px"
	 viewBox="0 0 129 62" style="enable-background:new 0 0 129 62;" xml:space="preserve">
<style type="text/css">
	.st0{fill:#F37121;}
	.st1{fill:#FFFFFF;}
</style>
<g>
	<g>
		<rect x="2.7" y="49.2" class="st0" width="124.6" height="12.4"/>
		<rect y="13.1" class="st0" width="5.4" height="48.5"/>
		<rect x="123.1" y="13.1" class="st0" width="5.4" height="48.5"/>
		<g>
			<polygon class="st0" points="32.2,32.8 22.4,13.1 2.7,13.1 2.7,18.5 19.1,18.5 32.2,44.9 45.4,18.5 42.1,13.1 			"/>
			<path class="st0" d="M50.6,13.1h-1v28.3h3.8l19.7,0.1V13.1L50.6,13.1L50.6,13.1z M55,18.5h12.7v17.6L55,36C55,36,55,18.5,55,18.5
				z"/>
			<polygon class="st0" points="82.6,36.1 82.6,0 77.2,0 77.2,41.5 95.6,41.5 95.6,36.1 			"/>
			<polygon class="st0" points="90.5,13.1 90.5,18.5 100.7,18.5 100.7,33 100.7,36.1 100.7,41.5 106.1,41.5 106.1,18.5 128.5,18.5 
				128.5,13.1 			"/>
		</g>
		<polygon class="st0" points="37.9,21.4 47.7,1.8 53.8,1.8 40.9,27.5 		"/>
	</g>
	<g>
		<path class="st1" d="M26.2,54.1c0,1.7-1.1,2.7-3,2.7h-1.5v2.6h-1.4v-8h3C25.1,51.4,26.2,52.4,26.2,54.1z M24.7,54.1
			c0-0.8-0.3-1.4-1.6-1.4h-1.4v2.7h1.4C24.5,55.5,24.7,54.9,24.7,54.1z"/>
		<path class="st1" d="M38.2,57.5h-3.4l-0.7,1.9h-1.5l3.2-8h1.6l3.2,8H39L38.2,57.5z M37.7,56.2L36.5,53l-1.2,3.1H37.7z"/>
		<path class="st1" d="M54.3,59.4h-1.7l-1.9-2.8h-1.3v2.8h-1.4v-8h3.1c1.8,0,3,0.9,3,2.6c0,1.5-1,2.1-1.8,2.4L54.3,59.4z M50.9,55.3
			c0.8,0,1.6-0.2,1.6-1.3c0-1.1-0.7-1.3-1.6-1.3h-1.6v2.5C49.3,55.3,50.9,55.3,50.9,55.3z"/>
		<path class="st1" d="M67.5,51.4v1.4H65v6.6h-1.4v-6.6H61v-1.4C61,51.4,67.5,51.4,67.5,51.4z"/>
		<path class="st1" d="M82.1,51.4v8h-1.6l-4.1-6v6h-1.4v-8h1.6l4.1,5.9v-5.9H82.1z"/>
		<path class="st1" d="M91.7,54.7h3.4v1.4h-3.4v2h3.9v1.3h-5.3v-8h5.3v1.3h-3.9V54.7z"/>
		<path class="st1" d="M109.8,59.4H108l-1.9-2.8h-1.3v2.8h-1.4v-8h3.1c1.9,0,3,0.9,3,2.6c0,1.5-1,2.1-1.8,2.4L109.8,59.4z
			 M106.4,55.3c0.8,0,1.6-0.2,1.6-1.3c0-1.1-0.7-1.3-1.6-1.3h-1.6v2.5C104.8,55.3,106.4,55.3,106.4,55.3z"/>
	</g>
</g>
</svg>
