<?xml version="1.0" encoding="utf-8"?>
<!-- Generator: Adobe Illustrator 21.0.0, SVG Export Plug-In . SVG Version: 6.00 Build 0)  -->
<svg version="1.1" id="Layer_1" xmlns="http://www.w3.org/2000/svg" xmlns:xlink="http://www.w3.org/1999/xlink" x="0px" y="0px"
	 viewBox="0 0 51 30.2" style="enable-background:new 0 0 51 30.2;" xml:space="preserve">
<style type="text/css">
	.st0{fill:#F37121;}
</style>
<g>
	<g>
		<g>
			<g>
				<polygon class="st0" points="11.5,21.6 5.3,9.1 2.1,9.1 2.1,6.6 6.9,6.6 11.5,15.8 16.1,6.6 29.3,6.6 29.3,20 16.9,19.9 
					16.9,17.4 26.7,17.4 26.7,9.1 17.7,9.1 				"/>
			</g>
			<g>
				<polygon class="st0" points="44.9,20 31.2,20 31.2,0.4 33.8,0.4 33.8,17.4 42.3,17.4 42.3,7.8 44.9,7.8 				"/>
			</g>
		</g>
		<g>
			<rect x="37.5" y="6.6" class="st0" width="12.8" height="2.6"/>
		</g>
	</g>
	<g>
		<path class="st0" d="M51,24.3L0,23.4V0h51V24.3z M2.6,22.9h45.8V2.6H2.6V22.9z"/>
	</g>
	<g>
		<path class="st0" d="M5.7,25.3H5v1.3h0.7c0.6,0,0.8-0.3,0.8-0.7C6.5,25.5,6.3,25.3,5.7,25.3z"/>
		<path class="st0" d="M18.8,25.3h-0.8v1.2h0.8c0.4,0,0.7-0.1,0.7-0.6C19.6,25.4,19.2,25.3,18.8,25.3z"/>
		<polygon class="st0" points="11.5,26.9 12.6,26.9 12,25.4 		"/>
		<path class="st0" d="M45,25.3h-0.8v1.2H45c0.4,0,0.7-0.1,0.7-0.6C45.8,25.4,45.4,25.3,45,25.3z"/>
		<path class="st0" d="M0,22.9v7.3h51v-7.3H0z M5.7,27.2H5v1.2H4.3v-3.8h1.4c0.9,0,1.4,0.5,1.4,1.3S6.6,27.2,5.7,27.2z M13.2,28.4
			l-0.3-0.9h-1.6l-0.3,0.9h-0.7l1.5-3.8h0.7l1.5,3.8H13.2z M19.6,28.4l-0.9-1.3h-0.6v1.3h-0.7v-3.8h1.5c0.9,0,1.4,0.4,1.4,1.2
			c0,0.7-0.5,1-0.8,1.1l1,1.4H19.6z M26.7,25.3h-1.2v3.1h-0.7v-3.1h-1.2v-0.7h3.1V25.3z M33.5,28.4h-0.8l-2-2.8v2.8h-0.7v-3.8h0.8
			l1.9,2.8v-2.8h0.7V28.4z M39.9,25.3h-1.8v1h1.6v0.6h-1.6v1h1.8v0.6h-2.5v-3.8h2.5V25.3z M45.8,28.4l-0.9-1.3h-0.6v1.3h-0.7v-3.8
			h1.5c0.9,0,1.4,0.4,1.4,1.2c0,0.7-0.5,1-0.8,1.1l1,1.4H45.8z"/>
	</g>
</g>
</svg>
